<?xml version="1.0" encoding="UTF-8" standalone="no"?>
<!DOCTYPE svg PUBLIC "-//W3C//DTD SVG 1.1//EN" "http://www.w3.org/Graphics/SVG/1.1/DTD/svg11.dtd">
<!-- Generated by Microsoft Visio, SVG Export NMOS Controller - IS-04 Behaviour.svg Controller IS-04 -->
<svg xmlns="http://www.w3.org/2000/svg" xmlns:xlink="http://www.w3.org/1999/xlink" xmlns:ev="http://www.w3.org/2001/xml-events"
		width="8.26772in" height="11.6929in" viewBox="0 0 595.276 841.89" xml:space="preserve" color-interpolation-filters="sRGB"
		class="st14">

	<style type="text/css">
	<![CDATA[
		.st1 {fill:#ffffff;stroke:none;stroke-linecap:round;stroke-linejoin:round;stroke-width:0.24}
		.st2 {fill:#f2dcda;stroke:#000000;stroke-linecap:round;stroke-linejoin:round;stroke-width:0.75}
		.st3 {stroke:#000000;stroke-linecap:round;stroke-linejoin:round;stroke-width:0.75}
		.st4 {fill:#ddd6e5;stroke:#000000;stroke-linecap:round;stroke-linejoin:round;stroke-width:0.75}
		.st5 {fill:#000000}
		.st6 {fill:#dbeef3;stroke:#000000;stroke-linecap:round;stroke-linejoin:round;stroke-width:0.75}
		.st7 {fill:#fff2cc;stroke:#000000;stroke-linecap:round;stroke-linejoin:round;stroke-width:0.75}
		.st8 {fill:#fbd7bb;stroke:#000000;stroke-linecap:round;stroke-linejoin:round;stroke-width:0.75}
		.st9 {fill:none;stroke:none;stroke-linecap:round;stroke-linejoin:round;stroke-width:0.75}
		.st10 {fill:#000000;font-family:Calibri;font-size:1.00001em}
		.st11 {font-size:1em}
		.st12 {fill:#000000;font-family:Calibri;font-size:0.666664em}
		.st13 {fill:#d8d8d8;stroke:#000000;stroke-linecap:round;stroke-linejoin:round;stroke-width:0.24}
		.st14 {fill:none;fill-rule:evenodd;font-size:12px;overflow:visible;stroke-linecap:square;stroke-miterlimit:3}
	]]>
	</style>

	<g>
		<g id="shape223-1" transform="translate(63.4961,-272.835)">
            <title>IS-04 API Interactions</title>
			<rect x="0" y="494.646" width="392.882" height="347.244" class="st1"/>
		</g>
		<g id="group63-3" transform="translate(358.583,-310.394)">

			<g id="shape64-4" transform="translate(0,-4.56874)">
				<path d="M70.87 828.37 L70.87 780.16 L0 780.16 L0 828.37 L70.87 828.37 ZM42.96 828.37 L27.91 828.37 L27.91 833.34
							 C22.76 834.1 19.26 835.62 19.26 837.36 C19.26 839.86 26.5 841.89 35.43 841.89 C44.37 841.89 51.61 839.86
							 51.61 837.36 C51.61 835.62 48.1 834.1 42.96 833.34 L42.96 828.37 Z" class="st2"/>
			</g>
			<g id="shape65-6" transform="translate(2.85165,-20.9367)">
				<rect x="-1.18946E-07" y="799.381" width="65.1635" height="42.5091" class="st2"/>
			</g>
		</g>
		<g id="shape85-8" transform="translate(1234.49,430.866) rotate(90)">
			<path d="M0 841.89 L34.02 841.89" class="st3"/>
		</g>
		<g id="shape103-11" transform="translate(255.118,-521.575)">
		</g>
		<g id="shape104-12" transform="translate(1111.18,313.366) rotate(90)">
			<path d="M0 841.89 L63.14 841.89" class="st3"/>
		</g>
		<g id="group10-15" transform="translate(236.693,-418.11)">

			<g id="shape11-16" transform="translate(0,-23.9715)">

				<path d="M65.4 841.89 L66.82 839.06 L4.05 839.06 L5.46 841.89 L65.4 841.89 ZM0 837.7 L70.87 837.7 L70.87 818.97 L0
							 818.97 L0 837.7 Z" class="st4"/>
			</g>
			<g id="shape12-18" transform="translate(54.6669,-31.7016)">
				<rect x="0" y="830.358" width="12.1507" height="11.532" class="st4"/>
			</g>
			<g id="shape13-20" transform="translate(5.61827,-32.827)">
				<path d="M4.98 838.25 L0 838.25 L0 840.64 L1.3 840.64 L1.3 841.89 L3.69 841.89 L3.69 840.64 L4.98 840.64 L4.98 838.25
							 ZM12.99 838.25 L8.01 838.25 L8.01 840.64 L9.3 840.64 L9.3 841.89 L11.7 841.89 L11.7 840.64 L12.99 840.64
							 L12.99 838.25 ZM21 838.25 L16.02 838.25 L16.02 840.64 L17.31 840.64 L17.31 841.89 L19.7 841.89 L19.7
							 840.64 L21 840.64 L21 838.25 ZM29.01 838.25 L24.02 838.25 L24.02 840.64 L25.32 840.64 L25.32 841.89
							 L27.71 841.89 L27.71 840.64 L29.01 840.64 L29.01 838.25 ZM37.02 838.25 L32.03 838.25 L32.03 840.64 L33.33
							 840.64 L33.33 841.89 L35.72 841.89 L35.72 840.64 L37.02 840.64 L37.02 838.25 ZM37.02 832.48 L32.03 832.48
							 L32.03 834.87 L33.33 834.87 L33.33 836.12 L35.72 836.12 L35.72 834.87 L37.02 834.87 L37.02 832.48 ZM29.01
							 832.48 L24.02 832.48 L24.02 834.87 L25.32 834.87 L25.32 836.12 L27.71 836.12 L27.71 834.87 L29.01 834.87
							 L29.01 832.48 ZM21 832.48 L16.02 832.48 L16.02 834.87 L17.31 834.87 L17.31 836.12 L19.7 836.12 L19.7
							 834.87 L21 834.87 L21 832.48 ZM12.99 832.48 L8.01 832.48 L8.01 834.87 L9.3 834.87 L9.3 836.12 L11.7
							 836.12 L11.7 834.87 L12.99 834.87 L12.99 832.48 ZM4.98 832.48 L0 832.48 L0 834.87 L1.3 834.87 L1.3 836.12
							 L3.69 836.12 L3.69 834.87 L4.98 834.87 L4.98 832.48 Z" class="st5"/>
			</g>
			<g id="shape14-23" transform="translate(55.6646,-33.6193)">
				<path d="M5.63 837.77 L7.14 835.82 L8.86 835.82 L7.97 836.7 L9 836.7 L10.16 835.45 L9.01 834.19 L7.96 834.19 L8.85
							 835.07 L6.61 835.07 L5.08 837.05 L3.55 835.07 L1.31 835.07 L2.19 834.19 L1.15 834.19 L0 835.45 L1.15
							 836.7 L2.19 836.7 L1.3 835.82 L3.01 835.82 L4.52 837.77 L2.6 840.26 L1.3 840.27 L2.19 839.39 L1.15 839.39
							 L0 840.64 L1.15 841.89 L2.19 841.89 L1.31 841.02 L3.14 841.02 L5.08 838.5 L7.02 841.02 L8.85 841.02
							 L7.96 841.89 L9.01 841.89 L10.16 840.64 L9 839.39 L7.97 839.39 L8.86 840.27 L7.55 840.26 L5.63 837.77
							 Z" class="st5"/>
			</g>
		</g>
		<g id="shape121-26" transform="translate(-657.638,385.512) rotate(-90)">
			<path d="M0 841.89 L11.34 841.89" class="st3"/>
		</g>
		<g id="shape122-29" transform="translate(-714.331,480.472) rotate(-90)">
			<path d="M0 841.89 L70.87 841.89" class="st3"/>
		</g>
		<g id="group35-32" transform="translate(92.126,-316.063)">
			<g id="shape36-33" transform="translate(13.9504,-45.5452)">
				<path d="M23.59 836.45 L22.93 834.23 L1.42 834.23 L0 841.89 L2.13 841.89 L3.16 836.33 L21.37 836.33 L23.04 841.89
							 L25.22 841.89 L24.25 838.63 L33.11 838.63 L33.11 836.45 L23.59 836.45 Z" class="st6"/>
			</g>
			<g id="shape37-35" transform="translate(0,-17.5408)">
				<path d="M53.2 821.81 C52.6 821.81 51.76 821.46 51.35 821.03 L45.22 814.67 C44.81 814.24 43.98 813.89 43.38 813.89
							 L7.07 813.89 C6.47 813.89 5.98 814.38 5.98 814.98 L5.98 815.73 C5.98 816.33 5.49 816.82 4.89 816.82
							 L1.09 816.82 C0.49 816.82 0 817.31 0 817.91 L0 830.62 C0 831.22 0.49 831.71 1.09 831.71 L4.34 831.71
							 C4.94 831.71 5.43 832.2 5.43 832.8 L5.43 837.3 C5.43 837.9 5.92 838.39 6.52 838.39 L49.03 838.39 C49.63
							 838.39 50.32 837.94 50.57 837.4 L51.62 835.03 C51.86 834.48 52.55 834.03 53.15 834.03 L56.19 834.03
							 C56.79 834.03 57.7 834.28 58.21 834.59 L69.93 841.58 C70.44 841.89 70.87 841.65 70.87 841.05 L70.87
							 816.24 C70.87 815.65 70.42 815.37 69.88 815.63 L58.1 821.34 C57.56 821.6 56.63 821.81 56.03 821.81 L53.2
							 821.81 Z" class="st6"/>
			</g>
			<g id="shape38-37" transform="translate(39.9362,-36.7701)">
				<path d="M4.16 839.81 A2.07949 2.07949 -180 1 0 0 839.81 A2.07949 2.07949 -180 1 0 4.16 839.81 ZM24.57 828.77 C24.57
							 826.87 23.04 825.33 21.14 825.33 L9.14 825.33 C7.24 825.33 5.7 826.87 5.7 828.77 C5.7 830.66 7.24 832.2
							 9.14 832.2 L21.14 832.2 C23.04 832.2 24.57 830.66 24.57 828.77 Z" class="st6"/>
			</g>
			<g id="shape39-39" transform="translate(13.5163,-34.9559)">
				<path d="M12.72 841.89 L23.41 841.89 L23.41 835.89 L12.72 835.89 L12.72 841.89 ZM9.73 838.63 A1.04883 1.04883 -180
							 1 0 7.63 838.63 A1.04883 1.04883 -180 1 0 9.73 838.63 ZM5.91 838.63 A1.0481 1.0481 -180 1 0 3.82 838.63
							 A1.0481 1.0481 -180 1 0 5.91 838.63 ZM2.1 838.63 A1.04883 1.04883 -180 1 0 -0 838.63 A1.04883 1.04883
							 -180 1 0 2.1 838.63 Z" class="st5"/>
			</g>
		</g>
		<g id="group115-42" transform="translate(164.051,-466.583)">
			<g id="shape116-43" transform="translate(7.30493,0)">
				<rect x="0" y="797.953" width="25.7913" height="43.937" class="st7"/>
			</g>
			<g id="shape117-45" transform="translate(26.5811,-18.7558)">
				<ellipse cx="1.55908" cy="840.194" rx="1.55908" ry="1.69553" class="st7"/>
			</g>
			<g id="shape118-47" transform="translate(17.12,-7.20215)">
				<path d="M-0 841.89 L12.58 841.89 L12.58 840.79 L-0 840.79 L-0 841.89 ZM-0 838.56 L12.58 838.56 L12.58 837.46 L-0
							 837.46 L-0 838.56 ZM-0 835.23 L12.58 835.23 L12.58 834.13 L-0 834.13 L-0 835.23 Z" class="st5"/>
			</g>
		</g>
		<g id="shape213-50" transform="translate(184.252,-456.378)">
			<path d="M0 841.89 L52.12 841.89" class="st3"/>
		</g>
		<g id="shape214-53" transform="translate(1095.59,395.433) rotate(90)">
			<path d="M0 841.89 L14.17 841.89" class="st3"/>
		</g>
		<g id="shape217-56" transform="translate(1131.87,395.433) rotate(90)">
			<path d="M0 841.89 L14.17 841.89" class="st3"/>
		</g>
		<g id="shape218-59" transform="translate(253.701,1251.5) rotate(180)">
			<path d="M0 841.89 L126.14 841.89" class="st3"/>
		</g>
		<g id="shape221-62" transform="translate(290.029,-432.283)">
			<path d="M0 841.89 L102.57 841.89" class="st3"/>
		</g>
		<g id="shape222-65" transform="translate(-449.291,430.866) rotate(-90)">
			<path d="M0 841.89 L21.26 841.89" class="st3"/>
		</g>
		<g id="group56-68" transform="translate(233.858,-517.323)">
			<g id="shape57-69" transform="translate(0,-4.72617)">
				<path d="M48.01 824.49 L48.01 830.47 L51.62 830.47 L55.04 834.75 L70.87 834.75 L70.87 780.48 L48.01 780.48 L48.01
							 788.26 L57.81 788.26 L57.81 824.49 L48.01 824.49 ZM57.81 788.26 L3.53 788.26 L3.53 824.49 L57.81 824.49
							 L57.81 788.26 ZM60.73 841.89 L51.62 830.47 L9.11 830.47 L0 841.89 L60.73 841.89 ZM35.14 824.49 L25.59
							 824.49 L25.59 830.47 L35.14 830.47 L35.14 824.49 Z" class="st8"/>
			</g>
			<g id="shape58-71" transform="translate(7.05282,-25.393)">
				<path d="M47.32 812.52 L0 812.52 L0 841.89 L47.32 841.89 L47.32 812.52 Z" class="st8"/>
			</g>
			<g id="shape59-73" transform="translate(8.26528,-7.08364)">
				<path d="M53.45 788.91 L58.34 788.91 L58.34 787.01 L53.45 787.01 L53.45 788.91 ZM53.45 792.31 L58.34 792.31 L58.34
							 790.4 L53.45 790.4 L53.45 792.31 ZM41.47 837.46 L38.77 837.46 L40.28 839.14 L43.19 839.14 L41.47 837.46
							 ZM38.42 834.48 L36.1 834.48 L37.72 836.29 L40.27 836.29 L38.42 834.48 ZM37.32 837.46 L34.62 837.46 L35.81
							 839.14 L38.72 839.14 L37.32 837.46 ZM34.84 834.48 L32.52 834.48 L33.79 836.29 L36.35 836.29 L34.84 834.48
							 ZM33.17 837.46 L30.47 837.46 L31.33 839.14 L34.24 839.14 L33.17 837.46 ZM31.27 834.48 L28.95 834.48
							 L29.88 836.32 L32.44 836.32 L31.27 834.48 ZM29.02 837.46 L26.32 837.46 L26.86 839.14 L29.77 839.14 L29.02
							 837.46 ZM27.75 834.61 L25.4 834.61 L25.95 836.32 L28.51 836.32 L27.75 834.61 ZM24.87 837.46 L22.17 837.46
							 L22.38 839.14 L25.29 839.14 L24.87 837.46 ZM24.18 834.75 L21.82 834.75 L22.04 836.43 L24.61 836.43 L24.18
							 834.75 ZM20.55 834.75 L18.19 834.75 L18.08 836.43 L20.65 836.43 L20.55 834.75 ZM20.71 837.46 L18.01
							 837.46 L17.9 839.14 L20.81 839.14 L20.71 837.46 ZM16.93 834.75 L14.57 834.75 L14.13 836.43 L16.7 836.43
							 L16.93 834.75 ZM16.56 837.46 L13.86 837.46 L13.43 839.14 L16.34 839.14 L16.56 837.46 ZM31.37 840.21
							 L12.32 840.21 L11.83 841.89 L32.19 841.89 L31.37 840.21 ZM13.3 834.75 L10.94 834.75 L10.18 836.43 L12.75
							 836.43 L13.3 834.75 ZM12.41 837.46 L9.71 837.46 L8.95 839.14 L11.86 839.14 L12.41 837.46 ZM9.67 834.75
							 L7.31 834.75 L6.22 836.43 L8.79 836.43 L9.67 834.75 ZM8.26 837.46 L5.56 837.46 L4.48 839.14 L7.39 839.14
							 L8.26 837.46 ZM6.04 834.75 L3.68 834.75 L2.27 836.43 L4.84 836.43 L6.04 834.75 ZM4.11 837.46 L1.41 837.46
							 L0 839.14 L2.91 839.14 L4.11 837.46 Z" class="st5"/>
			</g>
		</g>
		<g id="shape224-76" transform="translate(219.685,-588.189)">
			<desc>NMOS Controller</desc>
			<rect x="0" y="813.543" width="85.0394" height="28.3465" class="st9"/>
			<text x="26.79" y="824.12" class="st10">NMOS <tspan x="17.91" dy="1.2em" class="st11">Controller</tspan></text>		</g>
		<g id="shape226-80" transform="translate(120.244,-497.892)">
			<desc>NMOS Registry</desc>
			<rect x="0" y="813.543" width="49.6063" height="28.3465" class="st9"/>
			<text x="9.07" y="824.12" class="st10">NMOS <tspan x="5.19" dy="1.2em" class="st11">Registry</tspan></text>		</g>
		<g id="shape227-84" transform="translate(99.2126,-304.724)">
			<desc>NMOS Node</desc>
			<rect x="0" y="813.543" width="58.1102" height="28.3465" class="st9"/>
			<text x="13.32" y="824.12" class="st10">NMOS <tspan x="15.88" dy="1.2em" class="st11">Node</tspan></text>		</g>
		<g id="shape230-88" transform="translate(367.087,-280.721)">
			<desc>NMOS Node</desc>
			<rect x="0" y="813.543" width="58.1102" height="28.3465" class="st9"/>
			<text x="13.32" y="824.12" class="st10">NMOS <tspan x="15.88" dy="1.2em" class="st11">Node</tspan></text>		</g>
		<g id="shape237-92" transform="translate(245.974,-319.126)">
			<desc>IS-04 Node API</desc>
			<rect x="0" y="827.717" width="31.1811" height="14.1732" class="st9"/>
			<text x="7.47" y="827.6" class="st12">IS-04 <tspan x="6.81" dy="1.2em" class="st11">Node </tspan><tspan x="10.2"
						dy="1.2em" class="st11">API</tspan></text>		</g>
		<g id="shape238-97" transform="translate(-607.465,282.047) rotate(-90) scale(-1,1)">
			<path d="M0 841.89 L14.17 841.89 L14.17 807.09 A8.85545 8.85545 0 0 1 23.03 798.24 L31.89 798.24 L31.89 805.32 L46.06
						 791.15 L31.89 776.98 L31.89 784.06 L23.03 784.06 A23.0242 23.0242 -180 0 0 0 807.09 L0 841.89 Z"
					class="st13"/>
		</g>
		<g id="shape240-99" transform="translate(150.419,-557.328)">
			<desc>IS-04 Query API</desc>
			<rect x="0" y="827.717" width="40.4012" height="14.1732" class="st9"/>
			<text x="12.08" y="827.6" class="st12">IS-04 <tspan x="10.21" dy="1.2em" class="st11">Query </tspan><tspan x="14.81"
						dy="1.2em" class="st11">API</tspan></text>		</g>
		<g id="shape246-104" transform="translate(99.2126,-375.591)">
			<path d="M0 841.89 L14.17 841.89 L14.17 753.73 A6.80098 6.80098 0 0 1 20.98 746.93 L54.43 746.93 L54.43 754.02 L68.6
						 739.84 L54.43 725.67 L54.43 732.76 L20.98 732.76 A20.9697 20.9697 -180 0 0 -0 753.73 L0 841.89 Z"
					class="st13"/>
		</g>
		<g id="shape241-106" transform="translate(67.2085,-481.433)">
			<desc>IS-04 Registration API</desc>
			<rect x="0" y="827.717" width="49.6063" height="14.1732" class="st9"/>
			<text x="16.68" y="827.6" class="st12">IS-04 <tspan x="5.16" dy="1.2em" class="st11">Registration </tspan><tspan
						x="19.41" dy="1.2em" class="st11">API</tspan></text>		</g>
		<g id="shape250-111" transform="translate(168.73,-348.844)">
			<path d="M0 841.89 L14.1 828.61 L14.1 835.25 L170.12 835.25 L170.12 828.61 L184.23 841.89 L170.12 855.17 L170.12 848.53
						 L14.1 848.53 L14.1 855.17 L0 841.89 Z" class="st13"/>
		</g>
	</g>
</svg>
