<?xml version="1.0" encoding="UTF-8" standalone="no"?>
<!DOCTYPE svg PUBLIC "-//W3C//DTD SVG 1.1//EN" "http://www.w3.org/Graphics/SVG/1.1/DTD/svg11.dtd">
<!-- Generated by Microsoft Visio, SVG Export NMOS_Controller.svg Page-1 -->
<svg xmlns="http://www.w3.org/2000/svg" xmlns:xlink="http://www.w3.org/1999/xlink" xmlns:ev="http://www.w3.org/2001/xml-events"
		width="5.71199in" height="4.82617in" viewBox="0 0 411.264 347.484" xml:space="preserve" color-interpolation-filters="sRGB"
		class="st14">
	<title>NMOS Controller Roles in a Networked Media System</title>

	<style type="text/css">
	<![CDATA[
		.st1 {fill:#ffffff;stroke:none;stroke-linecap:round;stroke-linejoin:round;stroke-width:0.24}
		.st2 {fill:#dbeef3;stroke:#000000;stroke-linecap:round;stroke-linejoin:round;stroke-width:0.75}
		.st3 {fill:#f2dcda;stroke:#000000;stroke-linecap:round;stroke-linejoin:round;stroke-width:0.75}
		.st4 {stroke:#000000;stroke-linecap:round;stroke-linejoin:round;stroke-width:0.75}
		.st5 {fill:#000000}
		.st6 {fill:#ddd6e5;stroke:#000000;stroke-linecap:round;stroke-linejoin:round;stroke-width:0.75}
		.st7 {fill:#fff2cc;stroke:#000000;stroke-linecap:round;stroke-linejoin:round;stroke-width:0.75}
		.st8 {fill:none;stroke:none;stroke-linecap:round;stroke-linejoin:round;stroke-width:0.75}
		.st9 {fill:#000000;font-family:Calibri;font-size:1.00001em}
		.st10 {font-size:1em}
		.st11 {fill:#ffffff;stroke:#000000;stroke-linecap:round;stroke-linejoin:round;stroke-width:0.24}
		.st12 {fill:#000000;font-family:Calibri;font-size:0.499992em}
		.st13 {fill:#ebf1df}
		.st14 {fill:none;fill-rule:evenodd;font-size:12px;overflow:visible;stroke-linecap:square;stroke-miterlimit:3}
	]]>
	</style>

	<g>
		<g id="shape223-1" transform="translate(0.12,-0.12)">
			<rect x="0" y="0.240014" width="411.024" height="347.244" class="st1"/>
		</g>
		<g id="group60-3" transform="translate(215.553,-34.1357)">
			<g id="shape61-4" transform="translate(0,-4.56874)">
				<path d="M70.87 333.97 L70.87 285.76 L0 285.76 L0 333.97 L70.87 333.97 ZM42.96 333.97 L27.91 333.97 L27.91 338.94
							 C22.76 339.7 19.26 341.21 19.26 342.95 C19.26 345.46 26.5 347.48 35.43 347.48 C44.37 347.48 51.61 345.46
							 51.61 342.95 C51.61 341.21 48.1 339.7 42.96 338.94 L42.96 333.97 Z" class="st2"/>
			</g>
			<g id="shape62-6" transform="translate(2.85165,-20.9367)">
				<rect x="-1.18946E-07" y="304.975" width="65.1635" height="42.5091" class="st2"/>
			</g>
		</g>
		<g id="group63-8" transform="translate(294.923,-34.1357)">
			<g id="shape64-9" transform="translate(0,-4.56874)">
				<path d="M70.87 333.97 L70.87 285.76 L0 285.76 L0 333.97 L70.87 333.97 ZM42.96 333.97 L27.91 333.97 L27.91 338.94
							 C22.76 339.7 19.26 341.21 19.26 342.95 C19.26 345.46 26.5 347.48 35.43 347.48 C44.37 347.48 51.61 345.46
							 51.61 342.95 C51.61 341.21 48.1 339.7 42.96 338.94 L42.96 333.97 Z" class="st3"/>
			</g>
			<g id="shape65-11" transform="translate(2.85165,-20.9367)">
				<rect x="-1.18946E-07" y="304.975" width="65.1635" height="42.5091" class="st3"/>
			</g>
		</g>
		<g id="shape83-13" transform="translate(-198.545,265.754) rotate(-90)">
			<path d="M0 347.48 L56.24 347.48" class="st4"/>
		</g>
		<g id="shape84-16" transform="translate(597.053,209.975) rotate(90)">
			<path d="M0 347.48 L36.76 347.48" class="st4"/>
		</g>
		<g id="shape85-19" transform="translate(676.423,212.718) rotate(90)">
			<path d="M0 347.48 L34.02 347.48" class="st4"/>
		</g>
		<g id="group40-22" transform="translate(113.506,-39.805)">
			<g id="shape41-23" transform="translate(13.9504,-45.5452)">
				<path d="M23.59 342.04 L22.93 339.83 L1.42 339.83 L0 347.48 L2.13 347.48 L3.16 341.92 L21.37 341.92 L23.04 347.48
							 L25.22 347.48 L24.25 344.22 L33.11 344.22 L33.11 342.04 L23.59 342.04 Z" class="st3"/>
			</g>
			<g id="shape42-25" transform="translate(0,-17.5408)">
				<path d="M53.2 327.41 C52.6 327.41 51.76 327.05 51.35 326.62 L45.22 320.26 C44.81 319.83 43.98 319.48 43.38 319.48
							 L7.07 319.48 C6.47 319.48 5.98 319.97 5.98 320.57 L5.98 321.32 C5.98 321.92 5.49 322.41 4.89 322.41
							 L1.09 322.41 C0.49 322.41 0 322.9 0 323.5 L0 336.21 C0 336.81 0.49 337.3 1.09 337.3 L4.34 337.3 C4.94
							 337.3 5.43 337.79 5.43 338.39 L5.43 342.9 C5.43 343.5 5.92 343.99 6.52 343.99 L49.03 343.99 C49.63 343.99
							 50.32 343.54 50.57 342.99 L51.62 340.62 C51.86 340.07 52.55 339.62 53.15 339.62 L56.19 339.62 C56.79
							 339.62 57.7 339.88 58.21 340.18 L69.93 347.18 C70.44 347.48 70.87 347.24 70.87 346.65 L70.87 321.84
							 C70.87 321.24 70.42 320.96 69.88 321.22 L58.1 326.93 C57.56 327.19 56.63 327.41 56.03 327.41 L53.2 327.41
							 Z" class="st3"/>
			</g>
			<g id="shape43-27" transform="translate(39.9362,-36.7701)">
				<path d="M4.16 345.4 A2.07949 2.07949 -180 1 0 0 345.4 A2.07949 2.07949 -180 1 0 4.16 345.4 ZM24.57 334.36 C24.57
							 332.47 23.04 330.93 21.14 330.93 L9.14 330.93 C7.24 330.93 5.7 332.47 5.7 334.36 C5.7 336.25 7.24 337.79
							 9.14 337.79 L21.14 337.79 C23.04 337.79 24.57 336.25 24.57 334.36 Z" class="st3"/>
			</g>
			<g id="shape44-29" transform="translate(13.5163,-34.9559)">
				<path d="M12.72 347.48 L23.41 347.48 L23.41 341.49 L12.72 341.49 L12.72 347.48 ZM9.73 344.22 A1.04883 1.04883 -180
							 1 0 7.63 344.22 A1.04883 1.04883 -180 1 0 9.73 344.22 ZM5.91 344.22 A1.0481 1.0481 -180 1 0 3.82 344.22
							 A1.0481 1.0481 -180 1 0 5.91 344.22 ZM2.1 344.22 A1.04883 1.04883 -180 1 0 -0 344.22 A1.04883 1.04883
							 -180 1 0 2.1 344.22 Z" class="st5"/>
			</g>
		</g>
		<g id="shape103-32" transform="translate(191.459,-245.317)">
		</g>
		<g id="shape104-33" transform="translate(553.116,95.2178) rotate(90)">
			<path d="M0 347.48 L63.14 347.48" class="st4"/>
		</g>
		<g id="group10-36" transform="translate(173.033,-141.852)">
			<g id="shape11-37" transform="translate(0,-23.9715)">
				<path d="M65.4 347.48 L66.82 344.65 L4.05 344.65 L5.46 347.48 L65.4 347.48 ZM0 343.29 L70.87 343.29 L70.87 324.56
							 L0 324.56 L0 343.29 Z" class="st6"/>
			</g>
			<g id="shape12-39" transform="translate(54.6669,-31.7016)">
				<rect x="0" y="335.952" width="12.1507" height="11.532" class="st6"/>
			</g>
			<g id="shape13-41" transform="translate(5.61827,-32.827)">
				<path d="M4.98 343.85 L0 343.85 L0 346.24 L1.3 346.24 L1.3 347.48 L3.69 347.48 L3.69 346.24 L4.98 346.24 L4.98 343.85
							 ZM12.99 343.85 L8.01 343.85 L8.01 346.24 L9.3 346.24 L9.3 347.48 L11.7 347.48 L11.7 346.24 L12.99 346.24
							 L12.99 343.85 ZM21 343.85 L16.02 343.85 L16.02 346.24 L17.31 346.24 L17.31 347.48 L19.7 347.48 L19.7
							 346.24 L21 346.24 L21 343.85 ZM29.01 343.85 L24.02 343.85 L24.02 346.24 L25.32 346.24 L25.32 347.48
							 L27.71 347.48 L27.71 346.24 L29.01 346.24 L29.01 343.85 ZM37.02 343.85 L32.03 343.85 L32.03 346.24 L33.33
							 346.24 L33.33 347.48 L35.72 347.48 L35.72 346.24 L37.02 346.24 L37.02 343.85 ZM37.02 338.07 L32.03 338.07
							 L32.03 340.47 L33.33 340.47 L33.33 341.71 L35.72 341.71 L35.72 340.47 L37.02 340.47 L37.02 338.07 ZM29.01
							 338.07 L24.02 338.07 L24.02 340.47 L25.32 340.47 L25.32 341.71 L27.71 341.71 L27.71 340.47 L29.01 340.47
							 L29.01 338.07 ZM21 338.07 L16.02 338.07 L16.02 340.47 L17.31 340.47 L17.31 341.71 L19.7 341.71 L19.7
							 340.47 L21 340.47 L21 338.07 ZM12.99 338.07 L8.01 338.07 L8.01 340.47 L9.3 340.47 L9.3 341.71 L11.7
							 341.71 L11.7 340.47 L12.99 340.47 L12.99 338.07 ZM4.98 338.07 L0 338.07 L0 340.47 L1.3 340.47 L1.3 341.71
							 L3.69 341.71 L3.69 340.47 L4.98 340.47 L4.98 338.07 Z" class="st5"/>
			</g>
			<g id="shape14-44" transform="translate(55.6646,-33.6193)">
				<path d="M5.63 343.37 L7.14 341.41 L8.86 341.41 L7.97 342.29 L9 342.29 L10.16 341.04 L9.01 339.79 L7.96 339.79 L8.85
							 340.66 L6.61 340.66 L5.08 342.65 L3.55 340.66 L1.31 340.66 L2.19 339.79 L1.15 339.79 L0 341.04 L1.15
							 342.29 L2.19 342.29 L1.3 341.41 L3.01 341.41 L4.52 343.37 L2.6 345.86 L1.3 345.86 L2.19 344.98 L1.15
							 344.98 L0 346.23 L1.15 347.48 L2.19 347.48 L1.31 346.61 L3.14 346.61 L5.08 344.09 L7.02 346.61 L8.85
							 346.61 L7.96 347.48 L9.01 347.48 L10.16 346.23 L9 344.98 L7.97 344.98 L8.86 345.86 L7.55 345.86 L5.63
							 343.37 Z" class="st5"/>
			</g>
		</g>
		<g id="shape119-47" transform="translate(243.9,-177.285)">
			<path d="M0 347.48 L58.11 347.48 L58.11 333.31" class="st4"/>
		</g>
		<g id="shape121-50" transform="translate(-226.892,167.364) rotate(-90)">
			<path d="M0 347.48 L11.34 347.48" class="st4"/>
		</g>
		<g id="shape122-53" transform="translate(-283.585,262.325) rotate(-90)">
			<path d="M0 347.48 L70.87 347.48" class="st4"/>
		</g>
		<g id="group35-56" transform="translate(28.4665,-39.805)">
			<g id="shape36-57" transform="translate(13.9504,-45.5452)">
				<path d="M23.59 342.04 L22.93 339.83 L1.42 339.83 L0 347.48 L2.13 347.48 L3.16 341.92 L21.37 341.92 L23.04 347.48
							 L25.22 347.48 L24.25 344.22 L33.11 344.22 L33.11 342.04 L23.59 342.04 Z" class="st2"/>
			</g>
			<g id="shape37-59" transform="translate(0,-17.5408)">
				<path d="M53.2 327.41 C52.6 327.41 51.76 327.05 51.35 326.62 L45.22 320.26 C44.81 319.83 43.98 319.48 43.38 319.48
							 L7.07 319.48 C6.47 319.48 5.98 319.97 5.98 320.57 L5.98 321.32 C5.98 321.92 5.49 322.41 4.89 322.41
							 L1.09 322.41 C0.49 322.41 0 322.9 0 323.5 L0 336.21 C0 336.81 0.49 337.3 1.09 337.3 L4.34 337.3 C4.94
							 337.3 5.43 337.79 5.43 338.39 L5.43 342.9 C5.43 343.5 5.92 343.99 6.52 343.99 L49.03 343.99 C49.63 343.99
							 50.32 343.54 50.57 342.99 L51.62 340.62 C51.86 340.07 52.55 339.62 53.15 339.62 L56.19 339.62 C56.79
							 339.62 57.7 339.88 58.21 340.18 L69.93 347.18 C70.44 347.48 70.87 347.24 70.87 346.65 L70.87 321.84
							 C70.87 321.24 70.42 320.96 69.88 321.22 L58.1 326.93 C57.56 327.19 56.63 327.41 56.03 327.41 L53.2 327.41
							 Z" class="st2"/>
			</g>
			<g id="shape38-61" transform="translate(39.9362,-36.7701)">
				<path d="M4.16 345.4 A2.07949 2.07949 -180 1 0 0 345.4 A2.07949 2.07949 -180 1 0 4.16 345.4 ZM24.57 334.36 C24.57
							 332.47 23.04 330.93 21.14 330.93 L9.14 330.93 C7.24 330.93 5.7 332.47 5.7 334.36 C5.7 336.25 7.24 337.79
							 9.14 337.79 L21.14 337.79 C23.04 337.79 24.57 336.25 24.57 334.36 Z" class="st2"/>
			</g>
			<g id="shape39-63" transform="translate(13.5163,-34.9559)">
				<path d="M12.72 347.48 L23.41 347.48 L23.41 341.49 L12.72 341.49 L12.72 347.48 ZM9.73 344.22 A1.04883 1.04883 -180
							 1 0 7.63 344.22 A1.04883 1.04883 -180 1 0 9.73 344.22 ZM5.91 344.22 A1.0481 1.0481 -180 1 0 3.82 344.22
							 A1.0481 1.0481 -180 1 0 5.91 344.22 ZM2.1 344.22 A1.04883 1.04883 -180 1 0 -0 344.22 A1.04883 1.04883
							 -180 1 0 2.1 344.22 Z" class="st5"/>
			</g>
		</g>
		<g id="group115-66" transform="translate(100.392,-190.325)">
			<g id="shape116-67" transform="translate(7.30493,5.68434E-14)">
				<rect x="0" y="303.547" width="25.7913" height="43.937" class="st7"/>
			</g>
			<g id="shape117-69" transform="translate(26.5811,-18.7558)">
				<ellipse cx="1.55908" cy="345.789" rx="1.55908" ry="1.69553" class="st7"/>
			</g>
			<g id="shape118-71" transform="translate(17.12,-7.20215)">
				<path d="M-0 347.48 L12.58 347.48 L12.58 346.39 L-0 346.39 L-0 347.48 ZM-0 344.15 L12.58 344.15 L12.58 343.05 L-0
							 343.05 L-0 344.15 ZM-0 340.82 L12.58 340.82 L12.58 339.72 L-0 339.72 L-0 340.82 Z" class="st5"/>
			</g>
		</g>
		<g id="shape213-74" transform="translate(120.592,-180.12)">
			<path d="M0 347.48 L52.12 347.48" class="st4"/>
		</g>
		<g id="shape214-77" transform="translate(537.525,177.285) rotate(90)">
			<path d="M0 347.48 L14.17 347.48" class="st4"/>
		</g>
		<g id="shape215-80" transform="translate(548.864,177.285) rotate(90)">
			<path d="M0 347.48 L32.23 347.48" class="st4"/>
		</g>
		<g id="shape216-83" transform="translate(563.037,177.285) rotate(90)">
			<path d="M0 347.48 L32.69 347.48" class="st4"/>
		</g>
		<g id="shape217-86" transform="translate(573.809,177.285) rotate(90)">
			<path d="M0 347.48 L14.17 347.48" class="st4"/>
		</g>
		<g id="shape218-89" transform="translate(190.041,538.943) rotate(180)">
			<path d="M0 347.48 L126.14 347.48" class="st4"/>
		</g>
		<g id="shape219-92" transform="translate(201.38,557.002) rotate(180)">
			<path d="M0 347.48 L52.44 347.48" class="st4"/>
		</g>
		<g id="shape220-95" transform="translate(215.553,-137.509)">
			<path d="M0 347.48 L34.09 347.48" class="st4"/>
		</g>
		<g id="shape221-98" transform="translate(226.369,-156.026)">
			<path d="M0 347.48 L102.57 347.48" class="st4"/>
		</g>
		<g id="shape222-101" transform="translate(-18.5452,212.718) rotate(-90)">
			<path d="M0 347.48 L21.26 347.48" class="st4"/>
		</g>
		<g id="group56-104" transform="translate(170.199,-241.065)">
			<g id="shape57-105" transform="translate(0,-4.72617)">
				<path d="M48.01 330.08 L48.01 336.06 L51.62 336.06 L55.04 340.35 L70.87 340.35 L70.87 286.07 L48.01 286.07 L48.01
							 293.86 L57.81 293.86 L57.81 330.08 L48.01 330.08 ZM57.81 293.86 L3.53 293.86 L3.53 330.08 L57.81 330.08
							 L57.81 293.86 ZM60.73 347.48 L51.62 336.06 L9.11 336.06 L0 347.48 L60.73 347.48 ZM35.14 330.08 L25.59
							 330.08 L25.59 336.06 L35.14 336.06 L35.14 330.08 Z" class="st2"/>
			</g>
			<g id="shape58-107" transform="translate(7.05282,-25.393)">
				<path d="M47.32 318.12 L0 318.12 L0 347.48 L47.32 347.48 L47.32 318.12 Z" class="st2"/>
			</g>
			<g id="shape59-109" transform="translate(8.26528,-7.08364)">
				<path d="M53.45 294.5 L58.34 294.5 L58.34 292.6 L53.45 292.6 L53.45 294.5 ZM53.45 297.9 L58.34 297.9 L58.34 296 L53.45
							 296 L53.45 297.9 ZM41.47 343.05 L38.77 343.05 L40.28 344.73 L43.19 344.73 L41.47 343.05 ZM38.42 340.08
							 L36.1 340.08 L37.72 341.88 L40.27 341.88 L38.42 340.08 ZM37.32 343.05 L34.62 343.05 L35.81 344.73 L38.72
							 344.73 L37.32 343.05 ZM34.84 340.08 L32.52 340.08 L33.79 341.88 L36.35 341.88 L34.84 340.08 ZM33.17
							 343.05 L30.47 343.05 L31.33 344.73 L34.24 344.73 L33.17 343.05 ZM31.27 340.08 L28.95 340.08 L29.88 341.92
							 L32.44 341.92 L31.27 340.08 ZM29.02 343.05 L26.32 343.05 L26.86 344.73 L29.77 344.73 L29.02 343.05 ZM27.75
							 340.2 L25.4 340.2 L25.95 341.92 L28.51 341.92 L27.75 340.2 ZM24.87 343.05 L22.17 343.05 L22.38 344.73
							 L25.29 344.73 L24.87 343.05 ZM24.18 340.34 L21.82 340.34 L22.04 342.02 L24.61 342.02 L24.18 340.34 ZM20.55
							 340.34 L18.19 340.34 L18.08 342.02 L20.65 342.02 L20.55 340.34 ZM20.71 343.05 L18.01 343.05 L17.9 344.73
							 L20.81 344.73 L20.71 343.05 ZM16.93 340.34 L14.57 340.34 L14.13 342.02 L16.7 342.02 L16.93 340.34 ZM16.56
							 343.05 L13.86 343.05 L13.43 344.73 L16.34 344.73 L16.56 343.05 ZM31.37 345.81 L12.32 345.81 L11.83 347.48
							 L32.19 347.48 L31.37 345.81 ZM13.3 340.34 L10.94 340.34 L10.18 342.02 L12.75 342.02 L13.3 340.34 ZM12.41
							 343.05 L9.71 343.05 L8.95 344.73 L11.86 344.73 L12.41 343.05 ZM9.67 340.34 L7.31 340.34 L6.22 342.02
							 L8.79 342.02 L9.67 340.34 ZM8.26 343.05 L5.56 343.05 L4.48 344.73 L7.39 344.73 L8.26 343.05 ZM6.04 340.34
							 L3.68 340.34 L2.27 342.02 L4.84 342.02 L6.04 340.34 ZM4.11 343.05 L1.41 343.05 L0 344.73 L2.91 344.73
							 L4.11 343.05 Z" class="st5"/>
			</g>
		</g>
		<g id="shape224-112" transform="translate(156.026,-311.931)">
			<desc>NMOS Controller</desc>
			<rect x="0" y="319.138" width="85.0394" height="28.3465" class="st8"/>
			<text x="26.79" y="329.71" class="st9">NMOS <tspan x="17.91" dy="1.2em" class="st10">Controller</tspan></text>		</g>
		<g id="shape225-116" transform="translate(311.931,-197.837)">
			<desc>Authorization Server</desc>
			<rect x="0" y="319.138" width="85.0394" height="28.3465" class="st8"/>
			<text x="9.15" y="329.71" class="st9">Authorization <tspan x="26.9" dy="1.2em" class="st10">Server</tspan></text>		</g>
		<g id="shape226-120" transform="translate(60.3562,-198.12)">
			<desc>NMOS Registry</desc>
			<rect x="0" y="319.138" width="49.6063" height="28.3465" class="st8"/>
			<text x="9.07" y="329.71" class="st9">NMOS <tspan x="5.19" dy="1.2em" class="st10">Registry</tspan></text>		</g>
		<g id="shape227-124" transform="translate(35.5531,-28.4665)">
			<desc>NMOS Node</desc>
			<rect x="0" y="319.138" width="58.1102" height="28.3465" class="st8"/>
			<text x="13.32" y="329.71" class="st9">NMOS <tspan x="15.88" dy="1.2em" class="st10">Node</tspan></text>		</g>
		<g id="shape228-128" transform="translate(114.923,-28.0093)">
			<desc>NMOS Node</desc>
			<rect x="0" y="319.138" width="58.1102" height="28.3465" class="st8"/>
			<text x="13.32" y="329.71" class="st9">NMOS <tspan x="15.88" dy="1.2em" class="st10">Node</tspan></text>		</g>
		<g id="shape229-132" transform="translate(225.474,-4.46341)">
			<desc>NMOS Node</desc>
			<rect x="0" y="319.138" width="58.1102" height="28.3465" class="st8"/>
			<text x="13.32" y="329.71" class="st9">NMOS <tspan x="15.88" dy="1.2em" class="st10">Node</tspan></text>		</g>
		<g id="shape230-136" transform="translate(303.427,-4.46341)">
			<desc>NMOS Node</desc>
			<rect x="0" y="319.138" width="58.1102" height="28.3465" class="st8"/>
			<text x="13.32" y="329.71" class="st9">NMOS <tspan x="15.88" dy="1.2em" class="st10">Node</tspan></text>		</g>
		<g id="shape234-140" transform="translate(592.092,74.5295) rotate(90)">
			<path d="M0 347.48 L14.17 347.48 L14.17 308.51 A3.54218 3.54218 0 0 1 17.72 304.96 L21.26 304.96 L21.26 312.05 L35.43
						 297.88 L21.26 283.7 L21.26 290.79 L17.72 290.79 A17.7109 17.7109 -180 0 0 0 308.51 L0 347.48 Z"
					class="st11"/>
		</g>
		<g id="shape237-142" transform="translate(244.608,-258.781)">
			<desc>BCP-003-02 / IS-10</desc>
			<rect x="0" y="333.311" width="49.6063" height="14.1732" class="st8"/>
			<text x="8.75" y="338.6" class="st12">BCP-003-02 / <tspan x="18.71" dy="1.2em" class="st10">IS</tspan>-10</text>		</g>
		<g id="shape238-146" transform="translate(-176.718,74.5295) rotate(-90) scale(-1,1)">
			<path d="M0 347.48 L14.17 347.48 L14.17 307.37 A3.54218 3.54218 0 0 1 17.72 303.83 L21.26 303.83 L21.26 310.92 L35.43
						 296.74 L21.26 282.57 L21.26 289.66 L17.72 289.66 A17.7109 17.7109 -180 0 0 0 307.37 L0 347.48 Z"
					class="st11"/>
		</g>
		<g id="shape239-148" transform="translate(-176.718,56.8129) rotate(-90) scale(-1,1)">
			<path d="M0 347.48 L14.17 347.48 L14.17 242.45 A13.1709 13.1709 0 0 1 27.35 229.28 L180 229.28 L180 236.37 L194.17 222.19
						 L180 208.02 L180 215.11 L27.35 215.11 A27.3396 27.3396 -180 0 0 0 242.45 L0 347.48 Z" class="st11"/>
		</g>
		<g id="shape240-150" transform="translate(119.884,-258.781)">
			<desc>IS-04 / BCP-002 / BCP-004</desc>
			<rect x="0" y="333.311" width="58.1102" height="14.1732" class="st8"/>
			<text x="10.19" y="338.6" class="st12">IS-04 / BCP-002<tspan x="16.28" dy="1.2em" class="st10"> </tspan>/ BCP-004</text>		</g>
		<g id="shape241-154" transform="translate(73.3956,-276.498)">
			<desc>IS-05 / IS-08</desc>
			<rect x="0" y="333.311" width="64.9134" height="14.1732" class="st8"/>
			<text x="24.53" y="338.6" class="st12">IS-05 / <tspan x="26.36" dy="1.2em" class="st10">IS</tspan>-08</text>		</g>
		<g id="group70-158" transform="translate(287.837,-190.041)">
			<g id="shape71-159" transform="translate(2.4999,5.68434E-14)">
				<path d="M0 347.48 L26.18 347.48 L26.18 303.55 L0 303.55 L0 347.48 Z" class="st13"/>
				<path d="M0 347.48 L26.18 347.48 L26.18 303.55 L0 303.55 L0 347.48" class="st4"/>
				<path d="M13.09 347.48 L13.09 303.55" class="st4"/>
			</g>
			<g id="shape72-163" transform="translate(5.09195,-3.19012)">
				<path d="M15.88 320.29 L21.66 320.29 L21.66 310.97 L15.88 310.97 L15.88 320.29 ZM6.55 314.75 L7.34 314.75 L7.34 310.77
							 L6.55 310.77 L6.55 314.75 ZM6.55 320.47 L7.34 320.47 L7.34 316.5 L6.55 316.5 L6.55 320.47 ZM4.68 314.75
							 L5.47 314.75 L5.47 310.77 L4.68 310.77 L4.68 314.75 ZM4.68 320.47 L5.47 320.47 L5.47 316.5 L4.68 316.5
							 L4.68 320.47 ZM1.87 314.75 L2.66 314.75 L2.66 310.77 L1.87 310.77 L1.87 314.75 ZM1.87 320.47 L2.66 320.47
							 L2.66 316.5 L1.87 316.5 L1.87 320.47 ZM0 314.75 L0.79 314.75 L0.79 310.77 L0 310.77 L0 314.75 ZM0 320.47
							 L0.79 320.47 L0.79 316.5 L0 316.5 L0 320.47 ZM14.88 342.01 L14.88 342.78 L21.73 342.78 L21.73 342.01
							 L14.88 342.01 ZM14.88 344.36 L14.88 345.14 L21.73 345.13 L21.73 344.36 L14.88 344.36 ZM14.88 346.71
							 L14.88 347.48 L21.73 347.48 L21.73 346.71 L14.88 346.71 ZM1.3 342.78 L8.15 342.78 L8.15 342.01 L1.3
							 342.01 L1.3 342.78 ZM1.3 345.14 L8.15 345.14 L8.15 344.36 L1.3 344.36 L1.3 345.14 ZM1.3 347.48 L8.15
							 347.48 L8.15 346.71 L1.3 346.71 L1.3 347.48 Z" class="st5"/>
			</g>
			<g id="shape73-166" transform="translate(21.5959,-31.2517)">
				<path d="M3.59 340.37 a0.48872 0.688651 -180 1 0 0.917155 0.476131 a0.48872 0.688651 -180 1 0 -0.917155 -0.476131
							 ZM3.59 342.4 a0.48872 0.688651 -180 1 0 0.903802 0.524399 a0.48872 0.688651 -180 1 0 -0.903802 -0.524399
							 ZM3.6 344.45 a0.48872 0.688651 -180 1 0 0.895475 0.55204 a0.48872 0.688651 -180 1 0 -0.895475 -0.55204
							 ZM3.6 346.52 a0.48872 0.688651 -180 1 0 0.895475 0.55204 a0.48872 0.688651 -180 1 0 -0.895475 -0.55204
							 ZM1.8 340.4 a0.48872 0.688651 -180 1 0 0.932051 0.414741 a0.48872 0.688651 -180 1 0 -0.932051 -0.414741
							 ZM1.81 342.44 a0.48872 0.688651 -180 1 0 0.921702 0.458386 a0.48872 0.688651 -180 1 0 -0.921702 -0.458386
							 ZM1.81 344.49 a0.48872 0.688651 -180 1 0 0.915192 0.483596 a0.48872 0.688651 -180 1 0 -0.915192 -0.483596
							 ZM1.81 346.55 a0.48872 0.688651 -180 1 0 0.915192 0.483596 a0.48872 0.688651 -180 1 0 -0.915192 -0.483596
							 ZM0.02 340.43 a0.489032 0.689091 -180 1 0 0.945843 0.350731 a0.489032 0.689091 -180 1 0 -0.945843 -0.350731
							 ZM0.02 342.47 a0.489032 0.689091 -180 1 0 0.938306 0.38887 a0.489032 0.689091 -180 1 0 -0.938306 -0.38887
							 ZM0.02 344.52 a0.489032 0.689091 -180 1 0 0.933529 0.411071 a0.489032 0.689091 -180 1 0 -0.933529 -0.411071
							 ZM0.02 346.59 a0.489032 0.689091 -180 1 0 0.933529 0.411071 a0.489032 0.689091 -180 1 0 -0.933529 -0.411071
							 Z" class="st13"/>
			</g>
		</g>
		<g id="shape245-169" transform="translate(241.065,-283.585)">
			<desc>All communications: BCP-003-01 / BCP-003-02</desc>
			<rect x="0" y="333.311" width="70.8661" height="14.1732" class="st8"/>
			<text x="10.63" y="338.6" class="st12">All communications:<tspan x="4.48" dy="1.2em" class="st10">BCP</tspan>-003-01 / BCP-003-02</text>		</g>
	</g>
</svg>
